<?xml version="1.0" encoding="UTF-8"?>
<svg id="_x31_" xmlns="http://www.w3.org/2000/svg" version="1.1" viewBox="0 0 57 56">
  <!-- Generator: Adobe Illustrator 29.5.1, SVG Export Plug-In . SVG Version: 2.1.0 Build 141)  -->
  <defs>
    <style>
      .st0 {
        fill: #e7e8ec;
      }

      .st1 {
        fill: #8b8ca9;
      }
    </style>
  </defs>
  <path id="bg" class="st0" d="M28.33,0h0C43.8,0,56.33,12.54,56.33,28h0c0,15.46-12.54,28-28,28h0C12.87,56,.33,43.46.33,28H.33C.33,12.54,12.87,0,28.33,0Z"/>
  <path id="cow" class="st1" d="M42.05,25.28c-.12-.67-.6-1.23-1.25-1.45-.55-.19-.99-.51-1.47-.86-.75-.57-1.61-1.2-2.92-1.2-.41,0-.76.03-1.1.09.38-.74.67-1.71.67-2.94,0-1.04-.37-2.03-1.05-2.84-.42-.49-1.06-.69-1.69-.53-.63.15-1.1.64-1.23,1.25-.17.82-.58,1.91-1.61,2.64h-4.14c-1.03-.73-1.44-1.82-1.61-2.64-.12-.61-.6-1.1-1.22-1.25-.63-.16-1.29.05-1.69.53-.69.81-1.05,1.79-1.05,2.84,0,1.23.3,2.2.67,2.94-.33-.05-.69-.08-1.1-.08-1.31,0-2.16.64-2.92,1.2-.48.35-.92.68-1.47.86-.66.22-1.13.76-1.25,1.45-.12.68.14,1.37.69,1.78,1.22.93,2.93,1.42,5.08,1.52.02.08.04.16.06.24.62,2.01,1.23,3.78,1.67,5.05-.5.62-.79,1.34-.79,2.12,0,2.53,3.08,4.51,6.99,4.51s6.99-1.98,6.99-4.51c0-.76-.29-1.47-.78-2.1.44-1.26,1.05-3.03,1.67-5.07.02-.08.04-.16.06-.24,2.16-.09,3.88-.59,5.09-1.52.55-.42.81-1.1.69-1.78h0ZM32.84,32.53c-.24-.13-.5-.25-.78-.36-.04-.01-.06-.02-.1-.03-.55-.22-1.16-.38-1.8-.5-.04,0-.06,0-.1-.01-.39-.06-.8-.1-1.2-.13h-.21v-.06l-.41.02h-.24l-.38.03c-1.47.09-2.79.46-3.84,1.03-.41-1.17-.89-2.64-1.4-4.27-.05-.16-.08-.32-.12-.5l-.02-.2v-.05c-.06-.56,0-1.16.16-1.78v-.05c.07-.29.18-.58.3-.88.02-.06.05-.12.07-.17.12-.29.26-.58.43-.88.23-.41.45-.79.68-1.11.01-.02.04-.05.05-.07.06-.09.12-.17.18-.25.02-.03.05-.07.07-.1.05-.07.11-.14.16-.21.02-.03.05-.06.07-.09.05-.06.1-.12.13-.17.01-.01.02-.02.04-.05.05-.06.1-.12.13-.16.07-.09.19-.14.31-.14h6.57c.12,0,.24.05.31.14.38.45,1.16,1.45,1.75,2.67,0,0,0,.02.01.02.14.29.26.59.37.9.01.03.02.08.04.12.08.25.15.52.21.79.02.1.04.2.05.3.02.16.04.34.05.5v.51c-.02.3-.06.6-.16.89-.5,1.64-1,3.11-1.4,4.27h-.01l.02.02ZM33.78,18.01c.12.29.18.59.18.9,0,.64-.11,1.17-.26,1.61-.07-.08-.13-.16-.19-.23-.01-.02-.04-.03-.06-.05-.14-.16-.3-.29-.48-.41-.04-.02-.05-.06-.08-.07.43-.58.72-1.19.89-1.77h0ZM22.87,18.01c.19.58.48,1.19.89,1.77-.02.01-.05.05-.07.06-.2.13-.39.28-.55.46-.06.07-.12.15-.19.23-.16-.44-.26-.97-.26-1.61,0-.32.06-.62.18-.9h0ZM18.57,24.54c.68-.51,1.1-.8,1.69-.8.27,0,.5.01.69.03-.01.03-.02.07-.05.12-.07.17-.14.36-.21.53-.04.08-.06.16-.08.24-.05.15-.1.29-.13.44-.02.08-.04.15-.06.23-.04.16-.07.32-.11.49,0,.06-.02.1-.02.16-.04.19-.05.38-.07.57v.05c-1.9-.12-2.98-.6-3.54-.97.79-.29,1.37-.73,1.9-1.11v.02ZM28.31,38.53c-2.92,0-4.96-1.34-4.96-2.56,0-.41.25-.82.66-1.19.17-.15.36-.29.56-.42,0,0,.01,0,.02-.01.69-.42,1.6-.72,2.6-.84l.7-.05c.29-.02.57-.02.85,0l.61.03c.68.08,1.32.23,1.88.46.05.02.1.05.14.07.21.09.41.19.6.29.08.05.16.1.24.16.13.08.25.17.36.27.45.39.72.83.72,1.25,0,1.2-2.04,2.56-4.96,2.56v-.02ZM36.45,26.62c-.06-.9-.31-1.85-.74-2.84.19-.02.42-.03.69-.03.6,0,1,.29,1.69.8.51.38,1.09.81,1.85,1.09-.62.43-1.69.88-3.49,1h0Z"/>
</svg>