<?xml version="1.0" encoding="UTF-8"?>
<svg id="_Слой_1" data-name="Слой_1" xmlns="http://www.w3.org/2000/svg" version="1.1" viewBox="0 0 25 25">
  <!-- Generator: Adobe Illustrator 29.6.1, SVG Export Plug-In . SVG Version: 2.1.1 Build 9)  -->
  <defs>
    <style>
      .st0 {
        fill: #eaa648;
      }
    </style>
  </defs>
  <path class="st0" d="M12.5,18c-.93,0-1.82-.23-2.51-.64-.47-.28-.63-.9-.34-1.37.28-.47.9-.63,1.37-.34.76.46,2.21.46,2.97,0,.47-.29,1.09-.13,1.37.34s.13,1.09-.34,1.37c-.69.41-1.58.64-2.51.64Z"/>
  <path class="st0" d="M15.51,13.5c-.55,0-1-.45-1-1s.44-1,1-1h0c.55,0,1,.45,1,1s-.45,1-1,1Z"/>
  <path class="st0" d="M12.5,22.41c-.69,0-1.39-.07-2.1-.22-3.7-.79-6.63-3.61-7.58-7.25-.5-.36-.88-.86-1.09-1.46-.26-.76-.22-1.57.13-2.29.22-.45.54-.84.95-1.13C3.93,5.67,7.93,2.51,12.5,2.5c2.57,0,4.5,1.5,4.5,3.5s-1.32,3.5-3,3.5c-1.43,0-2.5-.86-2.5-2,0-.55.45-1,1-1,.51,0,.94.39.99.89.08.05.26.11.51.11.48,0,1-.6,1-1.5,0-.83-1.12-1.5-2.5-1.5-3.77,0-7.06,2.7-7.82,6.4-.06.31-.26.56-.54.7-.2.1-.37.26-.46.46-.12.24-.13.51-.04.76.09.25.27.46.51.57.28.13.48.39.54.69.66,3.08,3.07,5.49,6.14,6.15,2.09.45,4.23.05,6.02-1.11s3.03-2.95,3.48-5.04c.06-.3.26-.56.54-.69.2-.1.37-.26.46-.46.24-.5.03-1.09-.46-1.33-.28-.14-.49-.4-.55-.71-.21-1.09-.64-2.1-1.26-3.01-.31-.46-.2-1.08.26-1.39s1.08-.2,1.39.26c.7,1.02,1.2,2.13,1.48,3.32.5.36.87.86,1.08,1.45.26.76.22,1.57-.13,2.29-.22.45-.55.84-.95,1.13-1.16,4.45-5.2,7.48-9.67,7.48Z"/>
  <path class="st0" d="M9.51,13.5c-.55,0-1-.45-1-1s.44-1,1-1h0c.55,0,1,.45,1,1s-.45,1-1,1Z"/>
</svg>