<?xml version="1.0" encoding="UTF-8"?>
<svg id="_x31_" xmlns="http://www.w3.org/2000/svg" version="1.1" viewBox="0 0 56 56">
  <!-- Generator: Adobe Illustrator 29.5.1, SVG Export Plug-In . SVG Version: 2.1.0 Build 141)  -->
  <defs>
    <style>
      .st0 {
        fill: #323232;
      }

      .st1 {
        fill: #e7e8ec;
      }
    </style>
  </defs>
  <path id="bg" class="st1" d="M28,0h0C43.46,0,56,12.54,56,28h0c0,15.46-12.54,28-28,28h0C12.54,56,0,43.46,0,28h0C0,12.54,12.54,0,28,0Z"/>
  <path id="bar" class="st0" d="M22,28c.6,0,1,.4,1,1v8c0,.6-.4,1-1,1h-4c-.6,0-1-.4-1-1v-8c0-.6.4-1,1-1h4ZM30,18c.6,0,1,.4,1,1v18c0,.6-.4,1-1,1h-4c-.6,0-1-.4-1-1v-18c0-.6.4-1,1-1h4ZM38,23c.6,0,1,.4,1,1v13c0,.6-.4,1-1,1h-4c-.6,0-1-.4-1-1v-13c0-.6.4-1,1-1h4ZM19,30v6h2v-6h-2ZM27,36h2v-16h-2v16ZM35,36h2v-11h-2v11Z"/>
</svg>