<?xml version="1.0" encoding="UTF-8"?>
<svg id="_Слой_1" data-name="Слой_1" xmlns="http://www.w3.org/2000/svg" version="1.1" viewBox="0 0 24 24">
  <!-- Generator: Adobe Illustrator 29.6.1, SVG Export Plug-In . SVG Version: 2.1.1 Build 9)  -->
  <defs>
    <style>
      .st0 {
        fill: #7743b6;
      }
    </style>
  </defs>
  <path class="st0" d="M22.21,6.88c-.55-.58-1.3-.92-2.1-.94-.77-.02-1.56.27-2.14.81l-2.22,2.06c-.46-1.07-1.52-1.81-2.75-1.81h-3c-.9,0-1.66.33-2.14.93l-4.84,4.67-.31-.31c-.39-.39-1.02-.39-1.41,0s-.39,1.02,0,1.41l6,6c.2.2.45.29.71.29s.51-.1.71-.29c.39-.39.39-1.02,0-1.41l-.24-.24.8-.7c.05-.05.1-.1.14-.15.14-.18.46-.2.6-.2h4c1.42,0,2.68-.55,3.49-1.48l4.6-4.4c1.2-1.14,1.25-3.04.12-4.24ZM20.71,9.68l-4.66,4.46c-.62.71-1.46.86-2.05.86h-4c-.89,0-1.64.32-2.13.91l-.83.72-2.62-2.62,4.87-4.69s.07-.08.11-.12c.14-.18.46-.2.6-.2h3c.55,0,1,.45,1,1s-.45,1-1,1h-2c-.55,0-1,.45-1,1s.45,1,1,1h2c.81,0,1.54-.32,2.08-.84.02-.01.04-.02.05-.03l4.21-3.91c.19-.18.45-.27.72-.27.27,0,.52.12.7.31.38.4.36,1.04-.04,1.42Z"/>
</svg>