<?xml version="1.0" encoding="UTF-8"?>
<svg id="_x31_" xmlns="http://www.w3.org/2000/svg" version="1.1" viewBox="0 0 56 56">
  <!-- Generator: Adobe Illustrator 29.5.1, SVG Export Plug-In . SVG Version: 2.1.0 Build 141)  -->
  <defs>
    <style>
      .st0 {
        fill: #323232;
      }

      .st1 {
        fill: #e7e8ec;
      }
    </style>
  </defs>
  <path id="bg" class="st1" d="M28,0h0C43.46,0,56,12.54,56,28h0c0,15.46-12.54,28-28,28h0C12.54,56,0,43.46,0,28h0C0,12.54,12.54,0,28,0Z"/>
  <path id="heart" class="st0" d="M32.9,18c1.64,0,3.18.69,4.34,1.88,1.25,1.19,1.93,2.87,1.73,4.55,0,1.68-.67,3.37-1.83,4.55l-8.48,8.71c-.19.2-.39.3-.67.3-.29,0-.48-.1-.67-.3l-8.48-8.71c-1.16-1.19-1.83-2.87-1.83-4.55s.67-3.37,1.93-4.55c2.41-2.48,6.36-2.47,8.77,0l.39.4.39-.4c1.16-1.19,2.79-1.88,4.43-1.88ZM32.9,19.98c-1.25,0-2.31.5-3.18,1.29l-.96,1.09c-.39.4-.96.4-1.35,0l-1.06-1.09c-.87-.89-1.93-1.29-3.08-1.29-1.06,0-2.22.4-2.99,1.29-.77.89-1.25,1.98-1.25,3.17,0,1.19.39,2.28,1.25,3.17l7.8,8.02,7.8-8.02c.87-.89,1.35-1.98,1.35-3.17s-.48-2.28-1.25-3.17c-.87-.79-1.93-1.29-3.08-1.29Z"/>
</svg>