<?xml version="1.0" encoding="UTF-8"?>
<svg id="_Слой_1" data-name="Слой_1" xmlns="http://www.w3.org/2000/svg" version="1.1" viewBox="0 0 25 25">
  <!-- Generator: Adobe Illustrator 29.6.1, SVG Export Plug-In . SVG Version: 2.1.1 Build 9)  -->
  <defs>
    <style>
      .st0 {
        fill: #eaa648;
      }
    </style>
  </defs>
  <path class="st0" d="M12.5,23.5c-6.07,0-11-4.93-11-11S6.43,1.5,12.5,1.5s11,4.93,11,11-4.93,11-11,11ZM12.5,3.5C7.54,3.5,3.5,7.54,3.5,12.5s4.04,9,9,9,9-4.04,9-9S17.46,3.5,12.5,3.5Z"/>
  <path class="st0" d="M12.5,17.5c-.55,0-1-.45-1-1v-4c0-.55.45-1,1-1s1,.45,1,1v4c0,.55-.45,1-1,1Z"/>
  <path class="st0" d="M12.51,9.5c-.55,0-1-.45-1-1s.44-1,1-1h0c.55,0,1,.45,1,1s-.45,1-1,1Z"/>
</svg>