<?xml version="1.0" encoding="UTF-8"?>
<svg id="_x31_" xmlns="http://www.w3.org/2000/svg" version="1.1" viewBox="0 0 56 56">
  <!-- Generator: Adobe Illustrator 29.5.1, SVG Export Plug-In . SVG Version: 2.1.0 Build 141)  -->
  <defs>
    <style>
      .st0 {
        fill: #323232;
      }

      .st1 {
        fill: #e7e8ec;
      }
    </style>
  </defs>
  <path id="bg" class="st1" d="M28,0h0C43.46,0,56,12.54,56,28h0c0,15.46-12.54,28-28,28h0C12.54,56,0,43.46,0,28h0C0,12.54,12.54,0,28,0Z"/>
  <path id="pen" class="st0" d="M27,19.02c2.7-2.7,7.2-2.7,9.9,0,2.8,2.8,2.8,7.19,0,9.89l-6.7,6.79c-.2.2-.4.3-.7.3h-8.1l-2.7,2.7c-.2.2-.4.3-.7.3s-.5-.1-.7-.3c-.4-.4-.4-1,0-1.4l2.7-2.7v-8.09c0-.3.1-.5.3-.7l6.7-6.79ZM23.4,34.01h5.7l2-2h-5.7l-2,2ZM35.6,20.42c-2-2-5.1-2-7.1,0l-6.5,6.49v5.69l2.3-2.3,7-6.99c.4-.4,1-.4,1.4,0,.4.4.4,1,0,1.4l-5.3,5.29h5.7l2.4-2.5c2-1.9,2-5.09.1-7.09Z"/>
</svg>