<?xml version="1.0" encoding="utf-8"?>
<!-- Generator: Adobe Illustrator 24.1.2, SVG Export Plug-In . SVG Version: 6.00 Build 0)  -->
<svg version="1.1" id="Layer_1" xmlns="http://www.w3.org/2000/svg" xmlns:xlink="http://www.w3.org/1999/xlink" x="0px" y="0px"
	 viewBox="0 0 56 56" style="enable-background:new 0 0 56 56;" xml:space="preserve">
<style type="text/css">
	.st0{fill:#E7E8EC;}
	.st1{fill:#323232;}
</style>
<path class="st0" d="M28,0L28,0c15.46,0,28,12.54,28,28l0,0c0,15.46-12.54,28-28,28l0,0C12.54,56,0,43.46,0,28l0,0
	C0,12.54,12.54,0,28,0z"/>
<path class="st1" d="M27,19.02c2.7-2.7,7.2-2.7,9.9,0c2.8,2.8,2.8,7.19,0,9.89l-6.7,6.79C30,35.9,29.8,36,29.5,36h-8.1l-2.7,2.7
	C18.5,38.9,18.3,39,18,39c-0.3,0-0.5-0.1-0.7-0.3c-0.4-0.4-0.4-1,0-1.4l2.7-2.7v-8.09c0-0.3,0.1-0.5,0.3-0.7L27,19.02z M23.4,34.01
	h5.7l2-2h-5.7L23.4,34.01z M35.6,20.42c-2-2-5.1-2-7.1,0L22,26.91v5.69l2.3-2.3l7-6.99c0.4-0.4,1-0.4,1.4,0c0.4,0.4,0.4,1,0,1.4
	l-5.3,5.29h5.7l2.4-2.5C37.5,25.61,37.5,22.42,35.6,20.42z"/>
</svg>
