<?xml version="1.0" encoding="UTF-8"?>
<svg id="_x31_" xmlns="http://www.w3.org/2000/svg" version="1.1" viewBox="0 0 56 56">
  <!-- Generator: Adobe Illustrator 29.5.1, SVG Export Plug-In . SVG Version: 2.1.0 Build 141)  -->
  <defs>
    <style>
      .st0 {
        fill: #323232;
      }

      .st1 {
        fill: #e7e8ec;
      }
    </style>
  </defs>
  <path id="bg" class="st1" d="M28,0h0C43.46,0,56,12.54,56,28h0c0,15.46-12.54,28-28,28h0C12.54,56,0,43.46,0,28h0C0,12.54,12.54,0,28,0Z"/>
  <path id="people" class="st0" d="M29.05,30c2.81,0,5.02,2.2,5.02,5v2c0,.6-.4,1-1,1-.6,0-1-.4-1-1v-2c0-1.7-1.31-3-3.01-3h-8.03c-1.71,0-3.01,1.3-3.01,3v2c0,.6-.4,1-1,1s-1-.4-1-1v-2c0-2.8,2.21-5,5.02-5h8.03ZM35.08,30.9c.1-.5.7-.8,1.2-.7,2.31.5,3.82,2.5,3.71,4.8v2c0,.6-.4,1-1,1s-1-.4-1-1v-2c0-1.4-.9-2.6-2.21-2.9-.5-.1-.8-.7-.7-1.2ZM25.04,18c2.81,0,5.02,2.2,5.02,5s-2.21,5-5.02,5c-2.81,0-5.02-2.2-5.02-5s2.21-5,5.02-5ZM31.06,18.9c.2-.6.7-.9,1.2-.7,2.71.6,4.32,3.4,3.61,6.2-.4,1.8-1.81,3.1-3.61,3.6h-.2c-.5,0-.9-.3-1-.8-.2-.5.2-1.1.7-1.2,1.1-.3,1.91-1.1,2.21-2.2.4-1.7-.6-3.3-2.21-3.7-.5-.1-.8-.7-.7-1.2ZM25.04,20c-1.71,0-3.01,1.3-3.01,3s1.31,3,3.01,3c1.71,0,3.01-1.3,3.01-3s-1.31-3-3.01-3Z"/>
</svg>