<?xml version="1.0" encoding="UTF-8"?>
<svg id="_x31_" xmlns="http://www.w3.org/2000/svg" version="1.1" viewBox="0 0 56 56">
  <!-- Generator: Adobe Illustrator 29.5.1, SVG Export Plug-In . SVG Version: 2.1.0 Build 141)  -->
  <defs>
    <style>
      .st0 {
        fill: #e7e8ec;
      }

      .st1 {
        fill: #8b8ca9;
      }
    </style>
  </defs>
  <path id="bg" class="st0" d="M28,0h0C43.46,0,56,12.54,56,28h0c0,15.46-12.54,28-28,28h0C12.54,56,0,43.46,0,28h0C0,12.54,12.54,0,28,0Z"/>
  <path id="ur" class="st1" d="M30.5,15.5c2.12,0,3.75,1.62,3.75,3.75v1.25h3.75c2.12,0,3.75,1.62,3.75,3.75v12.5c0,2.12-1.62,3.75-3.75,3.75h-20c-2.12,0-3.75-1.62-3.75-3.75v-12.5c0-2.12,1.62-3.75,3.75-3.75h3.75v-1.25c0-2.12,1.62-3.75,3.75-3.75h5ZM18,23c-.75,0-1.25.5-1.25,1.25v12.5c0,.75.5,1.25,1.25,1.25h3.75v-15h-3.75ZM24.25,38h7.5v-15h-7.5v15ZM34.25,23v15h3.75c.75,0,1.25-.5,1.25-1.25v-12.5c0-.75-.5-1.25-1.25-1.25h-3.75ZM25.5,18c-.75,0-1.25.5-1.25,1.25v1.25h7.5v-1.25c0-.75-.5-1.25-1.25-1.25h-5Z"/>
</svg>