<?xml version="1.0" encoding="UTF-8"?>
<svg id="_x31_" xmlns="http://www.w3.org/2000/svg" version="1.1" viewBox="0 0 57 56">
  <!-- Generator: Adobe Illustrator 29.5.1, SVG Export Plug-In . SVG Version: 2.1.0 Build 141)  -->
  <defs>
    <style>
      .st0 {
        fill: #e7e8ec;
      }

      .st1 {
        fill: #8b8ca9;
      }
    </style>
  </defs>
  <path id="bg" class="st0" d="M28.67,0h0C44.13,0,56.67,12.54,56.67,28h0c0,15.46-12.54,28-28,28h0C13.2,56,.67,43.46.67,28h0C.67,12.54,13.2,0,28.67,0Z"/>
  <path id="user" class="st1" d="M33.67,30.5c3.5,0,6.25,2.75,6.25,6.25v2.5c0,.75-.5,1.25-1.25,1.25s-1.25-.5-1.25-1.25v-2.5c0-2.12-1.62-3.75-3.75-3.75h-10c-2.12,0-3.75,1.62-3.75,3.75v2.5c0,.75-.5,1.25-1.25,1.25s-1.25-.5-1.25-1.25v-2.5c0-3.5,2.75-6.25,6.25-6.25h10ZM28.67,15.5c3.5,0,6.25,2.75,6.25,6.25s-2.75,6.25-6.25,6.25-6.25-2.75-6.25-6.25,2.75-6.25,6.25-6.25ZM28.67,18c-2.12,0-3.75,1.62-3.75,3.75s1.62,3.75,3.75,3.75,3.75-1.62,3.75-3.75-1.62-3.75-3.75-3.75Z"/>
</svg>