<?xml version="1.0" encoding="UTF-8"?>
<svg id="_Слой_1" data-name="Слой_1" xmlns="http://www.w3.org/2000/svg" version="1.1" viewBox="0 0 25 25">
  <!-- Generator: Adobe Illustrator 29.6.1, SVG Export Plug-In . SVG Version: 2.1.1 Build 9)  -->
  <defs>
    <style>
      .st0 {
        fill: #51b171;
      }
    </style>
  </defs>
  <path class="st0" d="M13.55,14.5c2.81,0,5.02,2.2,5.02,5v2c0,.6-.4,1-1,1-.6,0-1-.4-1-1v-2c0-1.7-1.3-3-3.01-3H5.52c-1.71,0-3.01,1.3-3.01,3v2c0,.6-.4,1-1,1s-1-.4-1-1v-2c0-2.8,2.21-5,5.02-5h8.03ZM19.58,15.4c.1-.5.7-.8,1.2-.7,2.31.5,3.82,2.5,3.71,4.8v2c0,.6-.4,1-1,1s-1-.4-1-1v-2c0-1.4-.9-2.6-2.21-2.9-.5-.1-.8-.7-.7-1.2ZM9.54,2.5c2.81,0,5.02,2.2,5.02,5s-2.21,5-5.02,5c-2.81,0-5.02-2.2-5.02-5s2.21-5,5.02-5ZM15.56,3.4c.2-.6.7-.9,1.21-.7,2.71.6,4.32,3.4,3.61,6.2-.4,1.8-1.81,3.1-3.61,3.6h-.2c-.5,0-.9-.3-1-.8-.2-.5.2-1.1.7-1.2,1.1-.3,1.91-1.1,2.21-2.2.4-1.7-.6-3.3-2.21-3.7-.5-.1-.8-.7-.7-1.2ZM9.54,4.5c-1.71,0-3.01,1.3-3.01,3s1.31,3,3.01,3c1.71,0,3.01-1.3,3.01-3s-1.31-3-3.01-3Z"/>
</svg>